# xmcd
#
# Track frame offsets:
#	150
#	21570
#	42489
#	62247
#	82764
#	100197
#	116705
#	135128
#	151095
#	172530
#	189273
#	206260
#
# Disc length: 3027 seconds
#
# Revision: 3309848781
# Processed by: cddbd v1.5.2PL0 Copyright (c) Steve Scherf et al.
# Submitted via: EZCDAudioConverter 8.0.2.1
#
DISCID=890bd10c
DTITLE=Thanh Bùi - Tìm Về Dấu Yêu
DYEAR=2011
DGENRE=World Pop
TTITLE0=Thanh Bùi - Niềm vui nơi đây
TTITLE1=Thanh Bùi - Tìm về dấu yêu
TTITLE2=Thanh Bùi - Đường về xa xôi
TTITLE3=Thanh Bùi - Gương thần gương thần
TTITLE4=Thanh Bùi, Hồ Ngọc Hà - Lặng thầm một tình yêu
TTITLE5=Thanh Bùi - Giữ lấy tháng năm
TTITLE6=Thanh Bùi - Vẫn yêu em mãi
TTITLE7=Thanh Bùi - Sống trọn cho nhau
TTITLE8=Thanh Bùi - Tình nào cao hơn
TTITLE9=Thanh Bùi - Trong mắt tôi
TTITLE10=Thanh Bùi, Hồng Nhung - Đừng quay bước đi
TTITLE11=Thanh Bùi - Trọn trao
EXTD=
EXTT0=
EXTT1=
EXTT2=
EXTT3=
EXTT4=
EXTT5=
EXTT6=
EXTT7=
EXTT8=
EXTT9=
EXTT10=
EXTT11=
PLAYORDER=
